<?xml version="1.0" standalone="no"?>
<!DOCTYPE svg PUBLIC "-//W3C//DTD SVG 20010904//EN"
 "http://www.w3.org/TR/2001/REC-SVG-20010904/DTD/svg10.dtd">
<svg version="1.0" xmlns="http://www.w3.org/2000/svg"
 width="868.000000pt" height="868.000000pt" viewBox="0 0 868.000000 868.000000"
 preserveAspectRatio="xMidYMid meet">

<g transform="translate(0.000000,868.000000) scale(0.100000,-0.100000)"
fill="#000000" stroke="none">
<path d="M99 5311 l-29 -30 2 -1136 3 -1137 28 -24 28 -24 1100 0 c1230 0
1159 -4 1179 68 7 28 10 382 8 1151 l-3 1110 -23 23 -23 23 -1120 3 -1120 2
-30 -29z m2131 -255 l0 -103 -92 -7 c-482 -36 -787 -235 -865 -565 -19 -83
-12 -231 17 -351 43 -173 26 -257 -64 -337 -74 -65 -139 -85 -293 -91 l-133
-4 0 80 0 81 73 54 c166 125 243 254 268 449 27 213 -66 444 -261 647 -86 90
-116 111 -163 111 -35 0 -46 -7 -111 -72 -128 -129 -215 -273 -257 -424 -29
-104 -32 -272 -5 -358 44 -148 126 -267 241 -353 53 -40 70 -58 69 -75 -1 -13
-2 -49 -3 -80 l-1 -58 -200 0 -200 0 0 780 0 780 990 0 990 0 0 -104z m-1454
-286 c102 -108 174 -244 196 -372 15 -84 1 -181 -36 -261 -26 -55 -118 -167
-137 -167 -5 0 -9 104 -9 238 0 199 -3 241 -16 260 -21 30 -58 28 -83 -4 -20
-25 -21 -39 -21 -261 l0 -233 -26 16 c-14 9 -43 42 -64 72 -105 147 -118 338
-35 519 46 101 149 243 175 243 5 0 30 -22 56 -50z m1442 -372 c-7 -4 -27 -8
-44 -8 -51 0 -202 -48 -277 -87 -144 -76 -238 -198 -240 -312 -1 -53 4 -70 67
-195 53 -107 69 -150 73 -195 11 -115 -49 -233 -194 -385 l-73 -76 -97 -6
c-54 -4 -344 -3 -645 1 l-548 7 0 144 0 144 445 0 c385 0 446 -2 451 -15 8
-19 131 64 224 152 77 72 116 137 135 227 15 74 10 131 -25 295 -32 149 -26
255 20 346 65 128 161 208 317 265 113 40 162 50 303 58 l115 7 3 -179 c2
-137 -1 -181 -10 -188z m20 -714 l-3 -536 -233 -4 -233 -5 54 68 c106 133 147
234 147 362 0 100 -25 181 -87 286 -40 68 -48 88 -48 132 0 47 4 56 39 91 21
22 59 51 85 65 56 31 203 76 249 76 l32 1 -2 -536z"/>
<path d="M1069 3359 l-44 -41 45 33 c60 44 66 49 53 49 -6 0 -30 -18 -54 -41z"/>
<path d="M994 3304 c-18 -14 -18 -15 4 -4 12 6 22 13 22 15 0 8 -5 6 -26 -11z"/>
<path d="M8140 5160 c-111 -24 -214 -103 -259 -200 -20 -44 -25 -70 -25 -130
1 -92 24 -147 92 -212 55 -55 109 -83 249 -132 128 -44 154 -58 187 -96 60
-72 13 -170 -89 -185 -28 -5 -68 -3 -97 4 -56 12 -148 70 -172 106 l-16 24
-100 -47 c-75 -35 -100 -51 -100 -65 0 -29 127 -150 190 -180 201 -97 456 -67
577 66 19 22 47 64 60 94 22 48 25 65 21 137 -6 99 -27 145 -96 208 -59 53
-140 96 -242 131 -118 41 -166 65 -194 98 -79 93 35 202 176 168 35 -8 64 -25
104 -61 43 -40 59 -49 72 -42 88 44 162 92 162 104 -1 56 -133 165 -237 196
-68 20 -199 27 -263 14z"/>
<path d="M2808 5144 c-5 -4 -8 -261 -8 -571 l0 -563 248 0 c273 0 348 10 433
57 62 33 104 80 137 151 21 47 24 65 20 133 -4 64 -10 87 -34 126 -26 42 -97
102 -136 115 -8 3 2 18 25 38 21 18 50 56 65 84 22 43 27 64 27 132 0 70 -4
88 -30 139 -36 70 -80 108 -160 137 -55 20 -84 22 -320 26 -143 2 -263 1 -267
-4z m495 -226 c61 -41 60 -153 -2 -195 -30 -20 -46 -23 -142 -23 l-109 0 0
121 0 121 113 -3 c86 -3 119 -8 140 -21z m21 -438 c50 -26 71 -64 71 -130 0
-44 -5 -63 -20 -80 -39 -43 -74 -53 -202 -58 l-123 -5 0 147 0 148 123 -4 c83
-2 131 -8 151 -18z"/>
<path d="M3830 4579 l0 -569 355 0 355 0 0 105 0 105 -240 0 -240 0 0 130 0
130 215 0 215 0 0 110 0 110 -215 0 -215 0 0 114 c0 109 1 115 22 122 12 4
119 5 238 3 l215 -4 0 105 0 105 -352 1 -353 1 0 -568z"/>
<path d="M4755 5142 c-3 -3 -5 -259 -5 -569 l0 -563 120 0 120 0 0 185 0 185
83 0 84 0 28 -52 c53 -98 187 -309 199 -314 7 -3 67 -3 134 -2 l123 3 -44 70
c-24 39 -80 128 -125 199 -45 72 -82 134 -82 138 0 4 6 8 14 8 25 0 126 101
151 149 32 64 49 159 41 233 -18 172 -148 302 -329 329 -63 9 -503 10 -512 1z
m469 -212 c22 -5 51 -17 65 -27 33 -24 71 -98 71 -138 0 -54 -40 -117 -90
-142 -38 -20 -60 -23 -162 -23 l-118 0 0 163 c0 90 3 167 7 170 10 10 182 8
227 -3z"/>
<path d="M5807 5143 c-4 -3 -7 -260 -7 -570 l0 -563 365 0 365 0 0 105 0 105
-240 0 -240 0 0 130 0 130 205 0 205 0 0 110 0 110 -205 0 -205 0 0 121 0 121
238 -3 237 -4 0 105 0 105 -356 3 c-195 1 -358 -1 -362 -5z"/>
<path d="M6740 4580 l0 -570 115 0 115 0 0 339 c0 187 4 342 8 345 5 3 82
-106 173 -241 90 -135 193 -289 229 -342 l65 -96 113 -3 112 -3 0 571 0 570
-120 0 -120 0 -2 -362 -3 -363 -35 55 c-19 30 -125 193 -237 363 l-202 307
-106 0 -105 0 0 -570z"/>
<path d="M5370 3646 c-19 -24 -8 -61 19 -64 29 -4 53 22 44 46 -12 33 -43 41
-63 18z"/>
<path d="M2895 3631 c-49 -22 -73 -48 -91 -98 -32 -91 0 -209 69 -252 53 -33
124 -38 180 -13 54 24 75 53 77 107 4 91 9 85 -80 85 l-80 0 0 -30 c0 -29 1
-30 50 -30 43 0 50 -3 50 -19 0 -11 -14 -31 -32 -46 -26 -22 -39 -26 -67 -21
-76 12 -118 78 -105 164 14 95 102 137 173 84 22 -16 38 -21 56 -16 32 8 32
24 -2 55 -58 52 -127 63 -198 30z"/>
<path d="M4254 3637 c-2 -7 -3 -94 -2 -192 l3 -180 33 -3 32 -3 0 86 c0 78 2
88 24 110 17 16 31 23 43 18 39 -14 43 -24 43 -119 l0 -94 35 0 35 0 0 88 c0
101 -13 158 -40 172 -27 15 -77 12 -110 -5 l-30 -16 0 76 0 75 -30 0 c-17 0
-33 -6 -36 -13z"/>
<path d="M6177 3629 c-121 -64 -131 -270 -17 -346 74 -48 186 -39 235 19 21
25 25 40 25 94 l0 64 -78 0 -79 0 5 -30 c4 -27 8 -30 43 -30 44 0 53 -9 40
-44 -14 -34 -77 -54 -119 -37 -53 22 -75 55 -80 120 -5 69 14 113 58 136 50
26 101 13 136 -34 10 -12 17 -13 37 -4 45 21 14 72 -60 99 -53 19 -102 16
-146 -7z"/>
<path d="M3517 3603 c-4 -3 -7 -24 -7 -45 0 -31 -3 -38 -17 -36 -13 2 -19 -5
-21 -24 -3 -23 1 -28 17 -28 20 0 21 -6 21 -85 0 -78 2 -88 25 -111 20 -20 34
-25 63 -22 32 3 37 6 37 28 0 20 -6 26 -30 30 -30 5 -30 5 -33 83 l-3 77 36 0
c34 0 36 2 33 28 -3 24 -7 27 -35 24 -33 -2 -33 -2 -33 43 0 40 -2 45 -23 45
-13 0 -27 -3 -30 -7z"/>
<path d="M4578 3593 c-1 -10 -2 -29 -2 -43 -1 -18 -7 -26 -23 -28 -31 -5 -33
-52 -3 -52 18 0 20 -7 20 -75 0 -41 5 -85 11 -98 25 -56 129 -65 129 -12 0 19
-6 24 -32 27 l-33 3 -3 78 -3 77 36 0 c34 0 36 2 33 28 -3 24 -7 27 -35 24
-33 -3 -33 -3 -33 42 0 44 -1 46 -30 46 -21 0 -30 -5 -32 -17z"/>
<path d="M6987 3603 c-4 -3 -7 -24 -7 -45 0 -27 -4 -38 -15 -38 -21 0 -20 -48
1 -52 13 -2 16 -19 18 -85 2 -94 15 -117 72 -128 49 -9 74 1 74 31 0 21 -5 24
-34 24 -41 0 -46 10 -46 96 l0 64 41 0 c38 0 40 1 37 28 -3 25 -6 27 -40 24
l-38 -4 0 46 c0 44 -1 46 -28 46 -16 0 -32 -3 -35 -7z"/>
<path d="M3190 3422 c0 -95 3 -113 20 -135 34 -43 115 -45 142 -3 4 6 9 4 14
-7 4 -11 17 -17 35 -17 l29 0 0 136 0 135 -32 -3 -32 -3 0 -91 c-1 -61 -5 -96
-15 -107 -16 -20 -66 -22 -78 -4 -4 6 -10 55 -13 107 l-5 95 -32 3 -33 3 0
-109z"/>
<path d="M3720 3513 c-47 -32 -53 -58 -15 -66 18 -3 30 2 40 16 17 25 64 26
82 1 21 -28 16 -44 -14 -44 -40 0 -105 -20 -125 -38 -51 -44 9 -140 80 -128
19 3 42 12 52 21 16 14 18 14 23 0 4 -9 19 -15 38 -15 l31 0 -4 103 c-4 108
-15 138 -55 156 -36 16 -105 13 -133 -6z m120 -146 c0 -7 -7 -23 -16 -35 -12
-17 -24 -22 -47 -20 -41 4 -50 39 -15 56 32 15 78 15 78 -1z"/>
<path d="M4018 3514 c-69 -37 -84 -160 -27 -220 54 -57 163 -54 194 7 15 28
15 30 -11 39 -21 8 -29 7 -43 -11 -15 -18 -24 -21 -54 -15 -43 8 -57 29 -57
84 0 70 69 107 107 58 15 -18 26 -23 46 -19 35 7 34 27 -2 64 -25 24 -37 29
-78 29 -26 -1 -60 -7 -75 -16z"/>
<path d="M4815 3520 c-51 -21 -85 -82 -78 -145 7 -78 74 -131 152 -121 42 6
91 37 91 58 0 18 -45 26 -61 12 -17 -15 -67 -19 -85 -6 -11 7 -34 45 -34 56 0
3 40 6 89 6 50 0 92 4 96 9 11 19 -17 102 -43 121 -26 21 -89 26 -127 10z m95
-60 c29 -29 17 -40 -40 -40 -56 0 -70 13 -44 41 22 25 59 24 84 -1z"/>
<path d="M5040 3396 l0 -136 35 0 35 0 0 85 c0 94 16 125 65 125 21 0 25 5 25
30 0 25 -4 30 -25 30 -15 0 -37 -11 -51 -27 l-26 -28 3 25 c4 22 0 25 -28 28
l-33 3 0 -135z"/>
<path d="M5364 3517 c-2 -7 -3 -67 -2 -133 l3 -119 33 -3 32 -3 0 135 0 136
-30 0 c-17 0 -33 -6 -36 -13z"/>
<path d="M5500 3528 c-1 -2 -2 -63 -3 -136 l-2 -132 33 0 32 0 0 88 c0 96 12
122 58 122 32 0 42 -30 42 -124 l0 -86 33 0 32 0 0 84 c0 92 16 126 61 126 34
0 44 -28 44 -124 l0 -86 30 0 30 0 0 110 c0 104 -1 112 -25 135 -32 33 -89 34
-122 3 l-23 -21 -23 21 c-30 29 -89 30 -117 2 -11 -11 -22 -20 -24 -20 -2 0
-6 9 -9 20 -3 12 -14 20 -26 20 -12 0 -21 -1 -21 -2z"/>
<path d="M6518 3513 c-15 -9 -29 -26 -32 -37 -6 -24 -8 -22 32 -31 28 -6 32
-4 32 14 0 16 6 21 26 21 36 0 64 -17 64 -40 0 -16 -7 -20 -32 -20 -38 0 -98
-20 -122 -39 -25 -21 -20 -78 10 -108 21 -21 32 -25 66 -20 22 3 48 13 59 23
17 15 19 15 25 0 4 -10 18 -16 35 -16 l29 0 0 95 c0 102 -13 145 -49 165 -30
16 -113 12 -143 -7z m122 -150 c0 -26 -12 -40 -41 -51 -27 -11 -59 0 -59 20 0
24 34 48 67 48 25 0 33 -4 33 -17z"/>
<path d="M6770 3395 l0 -135 35 0 35 0 0 81 c0 96 9 116 55 125 30 5 35 10 35
35 0 24 -4 29 -24 29 -13 0 -35 -9 -49 -20 -25 -20 -25 -20 -30 0 -3 14 -14
20 -31 20 l-26 0 0 -135z"/>
<path d="M7220 3517 c-13 -7 -35 -28 -48 -47 -20 -30 -23 -43 -18 -89 3 -30
13 -66 23 -80 24 -31 88 -54 132 -47 35 5 81 40 81 62 0 20 -30 25 -53 9 -33
-23 -75 -19 -102 11 -43 46 -37 49 87 44 37 -1 71 1 76 4 19 11 -7 90 -38 119
-34 30 -95 37 -140 14z m110 -64 l22 -28 -62 -3 c-34 -2 -65 -1 -68 2 -2 3 3
17 12 31 23 35 67 34 96 -2z"/>
<path d="M7459 3526 c-2 -2 -3 -63 -1 -135 l3 -131 29 0 28 0 4 91 c3 81 6 93
27 110 28 23 45 24 65 3 12 -12 16 -37 16 -110 l0 -94 36 0 36 0 -4 116 c-3
107 -5 117 -27 135 -33 27 -102 26 -127 -2 l-18 -20 -8 20 c-6 19 -46 30 -59
17z"/>
<path d="M7813 3442 c-55 -2 -73 -7 -77 -19 -11 -27 8 -34 85 -31 63 3 74 6
77 22 6 27 -6 31 -85 28z"/>
<path d="M7960 3330 c-22 -22 -26 -45 -10 -55 13 -8 13 -51 0 -75 -18 -33 11
-36 37 -4 56 70 31 192 -27 134z"/>
<path d="M5172 3027 c-35 -11 -68 -58 -58 -83 3 -8 -3 -22 -14 -31 -24 -20
-26 -53 -5 -53 12 0 15 -19 15 -110 l0 -110 35 0 35 0 0 110 0 110 35 0 c19 0
35 4 35 9 0 27 -15 41 -41 41 -20 0 -29 5 -29 16 0 29 21 54 44 54 24 0 43 27
29 41 -16 14 -49 17 -81 6z"/>
<path d="M3852 2961 l3 -68 -37 19 c-90 47 -179 -42 -162 -162 10 -66 57 -110
117 -110 28 0 49 6 58 16 11 14 13 14 21 0 5 -9 22 -16 38 -16 l30 0 0 195 0
195 -36 0 -36 0 4 -69z m-22 -116 c36 -39 29 -123 -13 -142 -28 -13 -80 5 -91
32 -13 35 -6 91 14 113 27 29 61 28 90 -3z"/>
<path d="M4530 3026 c-1 -3 -1 -90 -1 -193 l-1 -188 31 -3 30 -3 3 97 c3 92 4
98 30 117 25 19 28 19 52 3 25 -16 26 -20 26 -116 l0 -100 36 0 c36 0 36 1 30
31 -3 17 -6 69 -6 116 0 76 -2 86 -25 108 -29 30 -98 35 -127 8 -17 -15 -18
-13 -18 50 0 51 -3 67 -14 67 -8 0 -21 3 -30 6 -9 3 -16 3 -16 0z"/>
<path d="M6850 2961 l0 -59 -37 13 c-100 35 -183 -84 -138 -200 9 -25 26 -52
38 -60 25 -18 90 -20 120 -4 16 9 22 9 25 0 2 -6 17 -11 33 -11 l29 0 0 190 0
190 -35 0 -35 0 0 -59z m-8 -109 c5 -5 11 -31 15 -59 5 -46 3 -54 -20 -77 -32
-32 -51 -33 -82 -1 -32 32 -34 91 -4 130 18 22 27 26 53 21 17 -4 34 -10 38
-14z"/>
<path d="M2810 2824 l0 -185 118 3 117 3 1 28 c1 27 1 27 -67 27 -105 0 -99
-9 -99 156 0 79 -3 145 -7 145 -5 1 -20 3 -35 5 l-28 3 0 -185z"/>
<path d="M5320 2966 c0 -35 -10 -56 -26 -56 -8 0 -14 -10 -14 -25 0 -15 6 -25
14 -25 21 0 26 -23 26 -111 0 -72 2 -80 24 -94 15 -10 40 -15 63 -13 33 3 38
7 41 30 3 22 0 26 -17 21 -38 -10 -51 13 -51 93 l0 74 35 0 c31 0 35 3 35 25
0 22 -4 25 -35 25 -34 0 -35 1 -35 40 0 38 -2 40 -30 40 -25 0 -30 -4 -30 -24z"/>
<path d="M3143 2919 c-35 -10 -69 -51 -58 -69 9 -15 51 -12 65 6 17 19 69 15
84 -8 14 -23 5 -30 -56 -39 -73 -12 -102 -36 -106 -86 -3 -34 1 -44 24 -62 35
-28 94 -28 120 0 l18 20 8 -20 c5 -15 16 -21 38 -21 l30 0 -1 98 c-1 53 -4
108 -8 121 -14 51 -91 81 -158 60z m92 -176 c-6 -27 -12 -33 -48 -54 -14 -8
-23 -6 -38 7 -10 9 -19 23 -19 30 0 21 42 44 78 44 32 0 34 -2 27 -27z"/>
<path d="M3468 2911 c-31 -25 -38 -26 -38 -8 0 9 -12 14 -30 15 l-30 1 0 -140
0 -139 29 0 29 0 4 94 c3 99 19 136 58 136 37 0 52 -34 52 -117 0 -104 3 -113
40 -113 l30 0 -4 115 c-3 107 -5 116 -28 140 -36 35 -79 42 -112 16z"/>
<path d="M4043 2919 c-58 -17 -82 -84 -45 -127 9 -11 43 -28 75 -37 58 -16 82
-40 56 -56 -22 -14 -76 -10 -93 6 -16 17 -52 20 -60 6 -19 -30 46 -71 114 -71
46 0 94 21 104 45 23 62 -12 109 -90 121 -69 10 -80 51 -17 66 14 4 28 -1 39
-13 18 -20 65 -21 71 -3 6 18 -51 62 -87 68 -19 2 -49 1 -67 -5z"/>
<path d="M4302 2910 c-124 -56 -81 -270 55 -270 24 0 54 5 66 12 32 16 70 59
60 68 -17 16 -49 15 -67 -2 -60 -55 -138 12 -115 96 16 59 65 73 109 31 26
-25 70 -26 70 -1 0 22 -33 58 -66 72 -44 18 -60 17 -112 -6z"/>
<path d="M4893 2919 c-17 -5 -41 -21 -52 -36 l-21 -26 20 -14 c18 -13 24 -12
49 6 33 24 61 27 79 9 20 -20 14 -37 -15 -43 -75 -16 -104 -28 -122 -52 -28
-34 -26 -69 4 -98 29 -29 88 -34 123 -9 20 14 23 14 28 0 4 -10 18 -16 35 -16
l29 0 0 99 c0 55 -4 111 -10 125 -18 48 -86 74 -147 55z m87 -169 c0 -21 -41
-70 -59 -70 -14 0 -41 29 -41 45 0 24 31 45 66 45 28 0 34 -4 34 -20z"/>
<path d="M5550 2919 c-43 -17 -60 -40 -60 -80 0 -29 6 -42 26 -58 15 -12 34
-21 42 -21 9 0 31 -5 49 -12 25 -9 33 -17 31 -33 -4 -30 -59 -32 -98 -5 -25
18 -34 19 -45 10 -41 -34 19 -80 103 -80 46 0 58 4 83 29 16 16 29 38 29 49 0
35 -38 70 -96 87 -60 17 -78 40 -49 61 21 15 54 10 71 -12 13 -16 50 -19 59
-4 10 15 -13 49 -45 65 -33 17 -64 18 -100 4z"/>
<path d="M6477 2911 c-29 -15 -37 -16 -37 -5 0 8 -10 12 -30 11 l-30 -2 0
-137 0 -138 30 0 30 0 0 89 c0 74 3 92 21 115 25 31 42 33 69 6 17 -17 20 -33
20 -115 l0 -95 35 0 35 0 0 88 c0 48 -5 103 -10 123 -19 67 -73 91 -133 60z"/>
<path d="M6080 2813 c0 -108 9 -141 44 -165 22 -15 86 -8 105 11 19 19 19 19
24 0 4 -14 14 -19 36 -19 l31 0 0 135 0 135 -25 0 c-14 0 -28 0 -32 0 -5 0 -8
-15 -9 -33 -3 -152 -3 -156 -28 -172 -19 -13 -29 -13 -49 -4 -29 13 -37 42
-37 140 0 53 -3 69 -14 69 -8 0 -21 3 -30 6 -14 5 -16 -8 -16 -103z"/>
<path d="M5730 2795 c0 -23 3 -25 53 -26 28 -1 66 -2 82 -3 26 -1 30 3 33 27
l3 27 -85 0 c-85 0 -86 0 -86 -25z"/>
<path d="M3440 2415 c-7 -8 -10 -25 -6 -40 8 -31 50 -35 66 -6 13 25 13 27 -6
45 -19 20 -38 20 -54 1z"/>
<path d="M2865 2406 c-59 -26 -82 -75 -64 -138 7 -29 19 -41 52 -57 23 -11 56
-23 72 -27 45 -11 75 -34 75 -58 0 -34 -19 -46 -72 -46 -39 0 -54 5 -72 25
-16 17 -29 22 -44 18 -25 -6 -26 -11 -12 -47 14 -37 59 -56 134 -56 58 0 69 3
97 28 24 21 32 38 36 74 5 42 2 50 -23 76 -16 16 -62 41 -101 56 -62 24 -73
31 -73 51 0 56 59 71 110 29 27 -23 35 -25 56 -15 23 10 24 12 10 40 -28 53
-115 76 -181 47z"/>
<path d="M3850 2413 c-1 -5 -1 -93 -1 -198 l0 -190 31 -3 30 -3 0 200 0 201
-30 0 c-16 0 -30 -3 -30 -7z"/>
<path d="M4300 2220 l0 -200 30 0 30 0 0 184 c0 101 3 191 6 200 5 13 -1 16
-30 16 l-36 0 0 -200z"/>
<path d="M5170 2222 l0 -199 96 -1 c114 -1 135 9 160 73 23 61 12 125 -28 170
-25 30 -37 35 -73 35 -28 0 -51 -7 -69 -21 l-26 -20 0 80 0 81 -30 0 -30 0 0
-198z m193 -24 c34 -69 -8 -137 -74 -123 -55 12 -76 90 -38 139 17 22 28 27
58 24 30 -3 39 -9 54 -40z"/>
<path d="M4730 2341 c0 -34 -3 -41 -20 -41 -16 0 -20 -7 -20 -30 0 -23 4 -30
20 -30 18 0 20 -7 20 -84 0 -104 19 -136 80 -136 30 0 40 5 45 20 8 24 -1 41
-18 35 -26 -10 -37 13 -43 88 l-7 77 37 0 c33 0 36 2 36 30 0 28 -3 30 -36 30
-35 0 -35 1 -32 38 3 35 2 37 -29 40 -32 3 -33 2 -33 -37z"/>
<path d="M3240 2303 c-8 -3 -25 -14 -36 -25 -21 -19 -21 -19 -27 1 -4 15 -13
21 -34 21 l-28 0 1 -193 1 -192 29 0 c29 0 29 0 32 68 3 67 3 67 25 52 28 -20
96 -19 125 1 72 50 69 214 -5 252 -27 14 -66 21 -83 15z m51 -84 c32 -35 36
-66 14 -108 -25 -49 -72 -55 -105 -13 -39 49 -8 152 47 152 8 0 28 -14 44 -31z"/>
<path d="M4110 2302 c-14 -2 -35 -13 -46 -23 -21 -20 -21 -20 -27 0 -3 15 -13
21 -31 21 l-26 0 0 -196 0 -195 32 3 32 3 -3 63 c-2 50 1 62 13 62 8 0 18 -4
21 -10 10 -16 93 -12 122 7 32 21 53 70 53 123 0 94 -59 154 -140 142z m44
-73 c54 -42 24 -159 -41 -159 -28 0 -73 41 -73 67 0 41 21 91 43 101 32 15 41
14 71 -9z"/>
<path d="M3430 2161 l0 -141 35 0 36 0 -3 138 -3 137 -32 3 -33 3 0 -140z"/>
<path d="M3610 2283 c-35 -24 -47 -42 -59 -89 -14 -54 2 -109 41 -146 26 -24
38 -28 90 -28 53 0 63 3 89 30 17 16 28 34 24 40 -9 15 -51 12 -65 -5 -29 -35
-110 -5 -110 41 0 24 1 24 90 24 98 0 97 -1 80 62 -22 76 -118 114 -180 71z
m100 -53 c32 -32 24 -40 -40 -40 -33 0 -60 4 -60 9 0 13 50 51 66 51 8 0 23
-9 34 -20z"/>
<path d="M4463 2274 c-39 -30 -42 -51 -9 -60 17 -4 32 0 47 15 27 25 52 27 73
6 22 -23 10 -41 -30 -43 -42 -3 -83 -18 -106 -39 -18 -16 -24 -78 -10 -99 23
-35 103 -45 134 -17 17 15 19 15 31 -1 8 -11 23 -17 37 -14 23 3 24 4 22 107
-2 126 -5 137 -42 156 -46 24 -110 19 -147 -11z m122 -125 c12 -18 -16 -69
-41 -75 -38 -10 -56 2 -52 33 2 22 11 31 38 40 44 15 47 15 55 2z"/>
<path d="M4905 2290 c-3 -6 -3 -19 0 -30 5 -17 15 -20 66 -20 l59 0 -65 -82
c-45 -57 -65 -91 -65 -110 l0 -28 110 0 110 0 0 31 0 30 -65 -2 c-36 -1 -67 0
-69 2 -2 2 27 42 65 89 40 49 69 94 69 107 0 22 -2 23 -104 23 -60 0 -108 -4
-111 -10z"/>
<path d="M5530 2284 c-47 -33 -53 -59 -15 -68 17 -4 31 0 45 14 25 25 45 25
70 0 25 -25 18 -40 -18 -40 -48 0 -101 -20 -120 -45 -16 -20 -18 -32 -11 -62
4 -21 16 -43 25 -50 25 -18 95 -16 122 3 20 14 23 14 28 0 3 -9 17 -16 31 -16
l25 0 -4 115 c-3 102 -5 117 -25 136 -30 31 -118 38 -153 13z m120 -148 c0
-25 -41 -66 -65 -66 -26 0 -51 33 -39 51 16 27 104 40 104 15z"/>
<path d="M5771 2179 c4 -114 5 -121 29 -139 30 -24 81 -25 120 -5 27 14 30 14
30 0 0 -10 10 -15 30 -15 l30 0 0 134 c0 130 -1 134 -22 140 -13 3 -26 6 -30
6 -5 0 -8 -40 -8 -89 0 -80 -3 -93 -24 -118 -21 -24 -27 -26 -52 -18 -29 10
-29 12 -38 118 l-8 107 -30 0 -30 0 3 -121z"/>
</g>
</svg>
